<?xml version="1.0" encoding="utf-8"?>
<!-- Generator: Adobe Illustrator 16.0.0, SVG Export Plug-In . SVG Version: 6.00 Build 0)  -->
<!DOCTYPE svg PUBLIC "-//W3C//DTD SVG 1.1//EN" "http://www.w3.org/Graphics/SVG/1.1/DTD/svg11.dtd">
<svg version="1.1" id="Layer_1" xmlns="http://www.w3.org/2000/svg" xmlns:xlink="http://www.w3.org/1999/xlink" x="0px" y="0px"
	 width="220px" height="80px" viewBox="0 0 220 80" enable-background="new 0 0 220 80" xml:space="preserve">
<g>
	<path fill="#2F3341" d="M19.234,18.813c2.492,1.374,4.092,3.921,4.092,7.054c0,4.455-3.323,7.778-7.813,7.778H3.53H3
		c-0.566,0-0.884-0.318-0.884-0.884V9.782c0-0.566,0.318-0.884,0.884-0.884h4.771h4.773c4.348,0,7.601,2.899,7.601,6.894
		C20.146,16.873,19.808,17.919,19.234,18.813L19.234,18.813z M7.771,14.2v3.535h6.01c0.459-0.424,0.707-1.025,0.707-1.591
		c0-1.167-0.778-1.944-1.944-1.944H7.771z M17.671,25.513c0-1.59-0.814-2.828-2.829-2.828H7.771v5.656h7.035
		C16.857,28.341,17.671,27.104,17.671,25.513z"/>
	<path fill="#2F3341" d="M62.751,26.786c-0.035-0.602,0.318-0.919,0.884-0.919h3.888c0.53,0,0.813,0.283,0.918,0.848
		c0.284,1.273,1.344,1.91,3.43,1.91c2.298,0,3.04-0.884,3.04-1.91c0-1.449-1.767-2.085-3.924-2.828
		c-3.499-1.202-7.918-2.651-7.918-8.061c0-4.95,4.031-7.424,8.237-7.424c4.136,0,8.096,2.228,8.52,7.354
		c0.035,0.601-0.319,0.918-0.884,0.918h-3.889c-0.53,0-0.812-0.283-0.919-0.848c-0.282-1.308-1.201-1.909-2.827-1.909
		c-1.769,0-2.581,0.884-2.581,1.909c0,1.485,1.45,2.192,3.5,2.935c3.535,1.237,8.342,2.51,8.342,7.954
		c0,4.95-3.96,7.424-8.696,7.424C67.241,34.139,63.176,31.912,62.751,26.786z"/>
	<path fill="#2F3341" d="M101.428,17.382c0,4.702-3.783,8.484-8.661,8.484h-3.713v6.894c0,0.566-0.317,0.884-0.883,0.884h-3.889
		c-0.565,0-0.884-0.318-0.884-0.884V9.782c0-0.566,0.319-0.884,0.884-0.884h4.772h3.713C97.645,8.897,101.428,12.68,101.428,17.382z
		 M95.772,17.382c0-1.803-1.273-3.182-3.005-3.182h-3.713v6.363h3.713C94.499,20.564,95.772,19.185,95.772,17.382z"/>
	<path fill="#2F3341" d="M118.399,29.084v3.676c0,0.566-0.318,0.884-0.885,0.884h-10.429h-1.945c-0.565,0-0.882-0.318-0.882-0.884
		V9.782c0-0.566,0.317-0.884,0.882-0.884h3.889c0.565,0,0.884,0.318,0.884,0.884V28.2h7.6
		C118.081,28.2,118.399,28.519,118.399,29.084z"/>
	<path fill="#2F3341" d="M141.776,33.645h-4.347c-0.495,0-0.85-0.212-0.99-0.743l-0.93-3.146h-8.676l-0.93,3.146
		c-0.141,0.53-0.495,0.743-0.99,0.743h-4.349c-0.636,0-0.954-0.354-0.741-0.99l7.494-23.015c0.142-0.495,0.53-0.742,1.025-0.742H134
		c0.495,0,0.884,0.248,1.025,0.742l7.494,23.015C142.731,33.291,142.414,33.645,141.776,33.645z M133.941,24.453l-2.771-9.368
		l-2.769,9.368H133.941z"/>
	<path fill="#2F3341" d="M158.396,9.782v3.677c0,0.565-0.319,0.883-0.885,0.883h-4.771V32.76c0,0.566-0.318,0.884-0.884,0.884h-3.89
		c-0.565,0-0.884-0.318-0.884-0.884V14.342h-4.772c-0.565,0-0.884-0.318-0.884-0.883V9.782c0-0.566,0.318-0.884,0.884-0.884h10.43
		h4.771C158.076,8.897,158.396,9.216,158.396,9.782z"/>
	<path fill="#2F3341" d="M174.834,8.897h3.89c0.565,0,0.884,0.318,0.884,0.884V32.76c0,0.566-0.318,0.884-0.884,0.884h-2.651
		c-0.459,0-0.849-0.177-1.096-0.565l-8.449-13.222V32.76c0,0.566-0.318,0.884-0.884,0.884h-3.89c-0.565,0-0.883-0.318-0.883-0.884
		V9.782c0-0.566,0.317-0.884,0.883-0.884h2.652c0.46,0,0.848,0.177,1.096,0.566l8.45,13.222V9.782
		C173.952,9.216,174.269,8.897,174.834,8.897z"/>
	<path fill="#2F3341" d="M204.003,33.645h-4.349c-0.495,0-0.849-0.212-0.99-0.743l-0.93-3.146h-8.676l-0.93,3.146
		c-0.141,0.53-0.495,0.743-0.989,0.743h-4.35c-0.636,0-0.953-0.354-0.741-0.99l7.495-23.015c0.141-0.495,0.53-0.742,1.024-0.742
		h5.656c0.495,0,0.885,0.248,1.025,0.742l7.495,23.015C204.958,33.291,204.639,33.645,204.003,33.645z M196.166,24.453l-2.769-9.368
		l-2.77,9.368H196.166z"/>
</g>
<rect x="11.302" y="0.856" fill="#F73838" width="12.142" height="5.264"/>
<rect x="12.371" y="14.358" transform="matrix(0.356 0.9345 -0.9345 0.356 33.7491 -14.9908)" fill="#F73838" width="30.759" height="5.264"/>
<circle fill="#F73838" cx="39.784" cy="37.221" r="3.959"/>
<circle fill="#F73838" cx="52.567" cy="33.461" r="3.243"/>
<circle fill="#F73838" cx="173.636" cy="60.532" r="3.243"/>
<path fill="#F73838" d="M8.546,3.485c0,1.453,1.252,2.63,2.756,2.63v-5.26C9.798,0.856,8.546,2.033,8.546,3.485z"/>
<rect x="31.118" y="24.72" transform="matrix(-0.966 0.2585 -0.2585 -0.966 92.8714 42.4923)" fill="#F73838" width="25.049" height="5.263"/>
<path fill="#F73838" d="M58.405,23.404c-0.375-1.404-1.891-2.217-3.344-1.828l1.36,5.08C57.874,26.269,58.78,24.807,58.405,23.404z"
	/>
<rect x="31.262" y="15.793" transform="matrix(-0.966 0.2585 -0.2585 -0.966 92.0387 24.7484)" fill="#F73838" width="26.261" height="5.264"/>
<path fill="#F73838" d="M59.741,14.321c-0.375-1.404-1.891-2.217-3.344-1.829l1.36,5.081C59.209,17.185,60.116,15.723,59.741,14.321
	z"/>
<rect x="27.583" y="7.468" transform="matrix(-0.966 0.2585 -0.2585 -0.966 87.3364 8.716)" fill="#F73838" width="31.024" height="5.264"/>
<path fill="#F73838" d="M60.744,5.38c-0.375-1.404-1.891-2.217-3.344-1.829l1.36,5.081C60.213,8.245,61.119,6.782,60.744,5.38z"/>
<path fill="#F73838" d="M23.444,0.856c0,0,0.9-0.106,1.291,0.825c0.316,0.753-0.257,3.158-0.257,3.158l-5.014-1.35L23.444,0.856z"/>
<path fill="#F73838" d="M19.95,6.12c0,0,0.832-0.03,1.295,1.185c0.463,1.215,1.266-1.409,1.266-1.409l-1.621-2.024L19.95,6.12z"/>
<path fill="#FD6500" d="M35.208,16.944"/>
<path fill="#F73838" d="M30.766,32.299c0,0,0.347,1.126,1.458,0.833c0.955-0.252,0.545-3.983,0.545-3.983l-2.479-0.105
	L30.766,32.299z"/>
<g>
	<path fill="#2F3341" d="M38.829,51.436c0,7-5.197,12.373-12.02,12.373H17.97h-0.883c-0.566,0-0.883-0.317-0.883-0.884V39.946
		c0-0.565,0.317-0.884,0.883-0.884h4.772h4.95C33.632,39.062,38.829,44.436,38.829,51.436z M33.385,51.436
		c0-4.242-2.687-6.93-6.576-6.93h-4.95v13.858h4.95C30.698,58.364,33.385,55.678,33.385,51.436z"/>
	<path fill="#2F3341" d="M40.951,51.436c0-7.282,5.763-12.869,12.869-12.869c7.105,0,12.868,5.586,12.868,12.869
		S60.926,64.304,53.82,64.304C46.714,64.304,40.951,58.718,40.951,51.436z M61.032,51.436c0-4.419-3.182-7.354-7.211-7.354
		c-4.03,0-7.212,2.935-7.212,7.354s3.182,7.354,7.212,7.354C57.85,58.789,61.032,55.854,61.032,51.436z"/>
	<path fill="#2F3341" d="M68.317,56.95c-0.035-0.601,0.318-0.919,0.884-0.919h3.889c0.53,0,0.813,0.282,0.918,0.848
		c0.283,1.273,1.344,1.91,3.429,1.91c2.298,0,3.041-0.884,3.041-1.91c0-1.448-1.768-2.085-3.924-2.827
		c-3.5-1.202-7.918-2.651-7.918-8.061c0-4.949,4.03-7.424,8.237-7.424c4.136,0,8.096,2.227,8.52,7.354
		c0.036,0.601-0.318,0.918-0.884,0.918H80.62c-0.53,0-0.813-0.282-0.919-0.848c-0.283-1.308-1.202-1.909-2.828-1.909
		c-1.768,0-2.581,0.884-2.581,1.909c0,1.484,1.45,2.192,3.5,2.935c3.535,1.237,8.344,2.51,8.344,7.953
		c0,4.95-3.96,7.425-8.697,7.425C72.807,64.304,68.741,62.076,68.317,56.95z"/>
	<path fill="#2F3341" d="M103.459,39.946v3.677c0,0.565-0.318,0.883-0.884,0.883h-4.772v18.419c0,0.566-0.318,0.884-0.884,0.884
		H93.03c-0.566,0-0.884-0.317-0.884-0.884V44.506h-4.772c-0.565,0-0.883-0.317-0.883-0.883v-3.677c0-0.565,0.318-0.884,0.883-0.884
		h10.429h4.772C103.141,39.062,103.459,39.38,103.459,39.946z"/>
	<path fill="#2F3341" d="M124.318,63.809h-4.349c-0.494,0-0.848-0.212-0.989-0.742l-0.93-3.146h-8.675l-0.93,3.146
		c-0.141,0.53-0.495,0.742-0.99,0.742h-4.348c-0.637,0-0.955-0.354-0.742-0.99l7.495-23.014c0.141-0.495,0.53-0.743,1.025-0.743
		h5.656c0.494,0,0.884,0.248,1.024,0.743l7.495,23.014C125.272,63.455,124.955,63.809,124.318,63.809z M116.482,54.617l-2.77-9.368
		l-2.77,9.368H116.482z"/>
	<path fill="#2F3341" d="M131.462,63.066l-7.177-23.015c-0.177-0.601,0.105-0.99,0.742-0.99h4.349c0.495,0,0.849,0.212,0.989,0.743
		l4.915,17.464l4.913-17.464c0.142-0.53,0.495-0.743,0.99-0.743h4.349c0.636,0,0.919,0.389,0.741,0.99l-7.176,23.015
		c-0.142,0.495-0.495,0.742-0.99,0.742h-5.655C131.957,63.809,131.603,63.562,131.462,63.066z"/>
	<path fill="#2F3341" d="M167.452,63.809h-4.349c-0.494,0-0.848-0.212-0.989-0.742l-0.93-3.146h-8.675l-0.931,3.146
		c-0.142,0.53-0.495,0.742-0.99,0.742h-4.348c-0.637,0-0.955-0.354-0.743-0.99l7.495-23.014c0.141-0.495,0.53-0.743,1.025-0.743
		h5.656c0.494,0,0.884,0.248,1.024,0.743l7.495,23.014C168.406,63.455,168.089,63.809,167.452,63.809z M159.616,54.617l-2.77-9.368
		l-2.77,9.368H159.616z"/>
</g>
<g>
	<path fill="#F73838" d="M199.087,63.809h-4.525c-0.46,0-0.813-0.141-1.096-0.53l-6.022-7.601h-2.18v7.248
		c0,0.565-0.318,0.883-0.884,0.883h-3.889c-0.565,0-0.884-0.317-0.884-0.883V39.947c0-0.565,0.318-0.884,0.884-0.884h4.772h3.89
		c4.701,0,8.483,3.783,8.483,8.484c0,2.968-1.762,5.672-4.375,7.09l6.355,8.076C200.076,63.278,199.829,63.809,199.087,63.809z
		 M185.264,50.729h3.89c1.555,0,2.827-1.379,2.827-3.182s-1.272-3.182-2.827-3.182h-3.89V50.729z"/>
	<path fill="#F73838" d="M200.996,56.95c-0.035-0.601,0.317-0.919,0.884-0.919h3.889c0.53,0,0.813,0.282,0.919,0.848
		c0.283,1.273,1.344,1.91,3.429,1.91c2.299,0,3.041-0.884,3.041-1.91c0-1.448-1.768-2.085-3.924-2.827
		c-3.5-1.202-7.92-2.651-7.92-8.061c0-4.949,4.03-7.424,8.237-7.424c4.137,0,8.096,2.228,8.521,7.354
		c0.035,0.601-0.318,0.918-0.884,0.918h-3.889c-0.53,0-0.813-0.282-0.92-0.848c-0.282-1.308-1.201-1.909-2.828-1.909
		c-1.768,0-2.58,0.884-2.58,1.909c0,1.484,1.449,2.192,3.5,2.935c3.535,1.237,8.343,2.51,8.343,7.953c0,4.95-3.96,7.425-8.697,7.425
		C205.485,64.304,201.42,62.076,200.996,56.95z"/>
</g>
<g>
	<path fill="#2F3341" d="M2.29,73.838l0.643-0.328c0.218,1.161,1.134,1.887,2.625,1.887c1.476,0,2.488-0.671,2.707-1.75
		c0.123-0.644-0.027-1.107-0.561-1.449c-0.26-0.178-0.506-0.314-0.711-0.409c-0.205-0.097-0.506-0.22-0.902-0.37
		c-0.615-0.219-0.957-0.342-1.503-0.67c-0.752-0.464-1.135-1.121-0.984-2.215c0.15-0.738,0.519-1.312,1.121-1.709
		c0.615-0.396,1.299-0.601,2.051-0.601c1.544,0,2.515,0.806,2.884,1.995l-0.642,0.328c-0.342-1.079-1.094-1.627-2.283-1.627
		c-1.163,0-2.173,0.644-2.393,1.682c-0.123,0.643,0.042,1.094,0.547,1.463c0.26,0.179,0.506,0.314,0.71,0.41
		C5.803,70.57,6.104,70.68,6.5,70.83c0.328,0.123,0.588,0.219,0.779,0.301c0.206,0.082,0.438,0.205,0.725,0.383
		c0.288,0.178,0.492,0.355,0.628,0.534c0.287,0.368,0.479,0.983,0.356,1.681c-0.314,1.53-1.668,2.364-3.458,2.364
		C3.793,76.093,2.604,75.259,2.29,73.838z"/>
	<path fill="#2F3341" d="M17.642,69.108h0.684l-1.203,6.834h-0.684l0.246-1.395c-0.766,1.025-1.818,1.545-3.158,1.545
		c-0.97,0-1.75-0.369-2.337-1.106c-0.587-0.738-0.807-1.613-0.629-2.611c0.192-1.066,0.657-1.9,1.408-2.502
		c0.752-0.614,1.599-0.915,2.543-0.915c1.298,0,2.392,0.71,2.829,1.872L17.642,69.108z M16.494,70.462
		c-0.492-0.562-1.134-0.849-1.941-0.849c-0.779,0-1.49,0.26-2.119,0.766c-0.628,0.506-1.025,1.189-1.176,2.051
		c-0.15,0.819,0.014,1.531,0.493,2.118c0.478,0.589,1.12,0.89,1.94,0.89c0.821,0,1.545-0.26,2.174-0.794
		c0.629-0.532,1.012-1.201,1.148-2.022C17.163,71.732,17,71.021,16.494,70.462z"/>
	<path fill="#2F3341" d="M29.536,69.668c0.396,0.465,0.532,1.107,0.382,1.94l-0.766,4.334h-0.683l0.751-4.334
		c0.219-1.27-0.355-1.995-1.463-1.995c-1.147,0-2.091,0.739-2.433,2.256l-0.725,4.073h-0.684l0.751-4.334
		c0.233-1.27-0.314-1.995-1.394-1.995c-1.204,0-2.256,0.849-2.543,2.489l-0.683,3.84h-0.684l1.203-6.834h0.684l-0.191,1.051
		c0.615-0.806,1.408-1.201,2.378-1.201c0.971,0,1.695,0.478,1.914,1.395c0.643-0.93,1.599-1.395,2.542-1.395
		C28.592,68.958,29.139,69.189,29.536,69.668z"/>
	<path fill="#2F3341" d="M32.011,75.082c-0.615-0.67-0.82-1.545-0.643-2.625c0.191-1.067,0.697-1.913,1.517-2.543
		c0.82-0.642,1.723-0.956,2.706-0.956c0.958,0,1.737,0.341,2.324,1.024c0.588,0.671,0.793,1.545,0.615,2.597
		c-0.191,1.081-0.684,1.942-1.49,2.57c-0.807,0.629-1.695,0.943-2.665,0.943C33.405,76.093,32.626,75.752,32.011,75.082z
		 M36.618,74.644c0.669-0.532,1.08-1.256,1.229-2.146c0.15-0.861-0.014-1.559-0.492-2.091c-0.479-0.534-1.107-0.794-1.887-0.794
		c-0.793,0.014-1.518,0.273-2.188,0.807c-0.655,0.533-1.065,1.229-1.216,2.104c-0.151,0.876,0,1.587,0.478,2.119
		c0.479,0.534,1.121,0.794,1.9,0.794C35.236,75.438,35.961,75.178,36.618,74.644z"/>
	<path fill="#2F3341" d="M49.358,69.108l-0.083,0.45l-5.072,5.715h4.197l-0.109,0.669h-5.195l0.082-0.45l5.058-5.715h-3.923
		l0.123-0.669H49.358z"/>
	<path fill="#2F3341" d="M56.809,69.108h0.684l-1.203,6.834h-0.684l0.246-1.395c-0.766,1.025-1.818,1.545-3.158,1.545
		c-0.97,0-1.75-0.369-2.337-1.106c-0.588-0.738-0.807-1.613-0.629-2.611c0.192-1.066,0.657-1.9,1.408-2.502
		c0.752-0.614,1.599-0.915,2.543-0.915c1.298,0,2.392,0.71,2.83,1.872L56.809,69.108z M55.661,70.462
		c-0.492-0.562-1.135-0.849-1.941-0.849c-0.779,0-1.49,0.26-2.119,0.766c-0.628,0.506-1.025,1.189-1.176,2.051
		c-0.15,0.819,0.014,1.531,0.493,2.118c0.478,0.589,1.12,0.89,1.94,0.89c0.821,0,1.545-0.26,2.174-0.794
		c0.629-0.532,1.012-1.201,1.148-2.022C56.33,71.732,56.166,71.021,55.661,70.462z"/>
	<path fill="#2F3341" d="M64.875,69.777l-0.793,4.442c-0.096,0.561,0,0.903,0.273,1.026c0.287,0.122,0.807,0.15,1.572,0.082
		l-0.095,0.614c-1.846,0.286-2.707-0.231-2.433-1.723l0.779-4.442h-1.503l0.123-0.669h1.504l0.301-1.709l0.725-0.205l-0.342,1.914
		h2.05l-0.123,0.669H64.875z"/>
	<path fill="#2F3341" d="M73.734,70.023c0.533,0.711,0.697,1.559,0.505,2.529c-0.027,0.15-0.055,0.26-0.082,0.328h-6.165
		c-0.109,1.544,0.848,2.557,2.42,2.557c1.135,0,1.996-0.424,2.597-1.259l0.533,0.355c-0.656,0.984-1.914,1.559-3.227,1.559
		c-1.039,0-1.831-0.341-2.392-1.038c-0.56-0.697-0.738-1.572-0.56-2.625c0.177-1.012,0.656-1.846,1.407-2.488
		c0.752-0.656,1.641-0.983,2.652-0.983C72.448,68.958,73.214,69.313,73.734,70.023z M73.583,72.212
		c0.164-1.642-0.738-2.599-2.215-2.599c-0.779,0-1.476,0.232-2.064,0.711c-0.588,0.479-0.998,1.107-1.203,1.888H73.583z"/>
	<path fill="#2F3341" d="M77.056,70.27c0.615-0.888,1.463-1.299,2.515-1.257l-0.123,0.655c-0.643,0-1.23,0.205-1.736,0.63
		c-0.506,0.41-0.834,1.024-0.984,1.845l-0.67,3.8h-0.684l1.203-6.834h0.684L77.056,70.27z"/>
	<path fill="#2F3341" d="M79.858,75.942l1.203-6.834h0.684l-1.203,6.834H79.858z M81.252,66.907
		c0.042-0.288,0.302-0.533,0.629-0.533c0.288,0,0.506,0.245,0.451,0.533c-0.055,0.314-0.314,0.547-0.643,0.547
		C81.376,67.454,81.198,67.222,81.252,66.907z"/>
	<path fill="#2F3341" d="M85.34,69.777l-0.793,4.442c-0.096,0.561,0,0.903,0.273,1.026c0.287,0.122,0.807,0.15,1.572,0.082
		l-0.096,0.614c-1.845,0.286-2.707-0.231-2.433-1.723l0.779-4.442H83.14l0.123-0.669h1.503l0.301-1.709l0.725-0.205l-0.342,1.914
		h2.05l-0.123,0.669H85.34z"/>
	<path fill="#2F3341" d="M88.458,75.082c-0.615-0.67-0.821-1.545-0.643-2.625c0.191-1.067,0.697-1.913,1.518-2.543
		c0.82-0.642,1.722-0.956,2.706-0.956c0.957,0,1.736,0.341,2.324,1.024c0.588,0.671,0.793,1.545,0.615,2.597
		c-0.191,1.081-0.683,1.942-1.49,2.57c-0.807,0.629-1.695,0.943-2.666,0.943C89.852,76.093,89.073,75.752,88.458,75.082z
		 M93.064,74.644c0.67-0.532,1.08-1.256,1.23-2.146c0.15-0.861-0.014-1.559-0.493-2.091c-0.478-0.534-1.107-0.794-1.886-0.794
		c-0.793,0.014-1.518,0.273-2.188,0.807c-0.656,0.533-1.065,1.229-1.216,2.104c-0.151,0.876,0,1.587,0.478,2.119
		c0.479,0.534,1.121,0.794,1.9,0.794C91.684,75.438,92.408,75.178,93.064,74.644z"/>
	<path fill="#2F3341" d="M97.849,70.27c0.615-0.888,1.463-1.299,2.516-1.257l-0.124,0.655c-0.642,0-1.23,0.205-1.735,0.63
		c-0.506,0.41-0.834,1.024-0.984,1.845l-0.67,3.8h-0.684l1.204-6.834h0.684L97.849,70.27z"/>
	<path fill="#2F3341" d="M100.652,75.942l1.203-6.834h0.683l-1.203,6.834H100.652z M102.046,66.907
		c0.041-0.288,0.301-0.533,0.629-0.533c0.287,0,0.505,0.245,0.451,0.533c-0.055,0.314-0.314,0.547-0.643,0.547
		C102.169,67.454,101.992,67.222,102.046,66.907z"/>
	<path fill="#2F3341" d="M104.903,69.108h0.684l-1.339,7.614c-0.26,1.559-1.148,2.255-2.639,2.104l0.109-0.655
		c1.04,0.109,1.654-0.37,1.846-1.449L104.903,69.108z M106.174,66.907c-0.055,0.314-0.314,0.547-0.642,0.547
		c-0.314,0-0.492-0.232-0.438-0.547c0.042-0.288,0.3-0.533,0.629-0.533C106.011,66.374,106.229,66.619,106.174,66.907z"/>
	<path fill="#2F3341" d="M112.75,69.108h0.684l-1.203,6.834h-0.684l0.205-1.189c-0.642,0.89-1.517,1.34-2.624,1.34
		c-1.627,0-2.502-1.079-2.229-2.733l0.752-4.251h0.697l-0.752,4.251c-0.219,1.271,0.355,2.078,1.654,2.078
		c1.409,0,2.542-0.958,2.857-2.721v0.013L112.75,69.108z"/>
	<path fill="#2F3341" d="M125.546,69.108h0.696l-1.147,6.506c-0.369,2.037-1.859,3.213-3.923,3.213c-1.478,0-2.558-0.643-2.98-1.641
		l0.616-0.314c0.286,0.766,1.079,1.3,2.391,1.3c1.764,0,2.913-0.931,3.199-2.558l0.19-1.066c-0.724,0.985-1.816,1.545-3.062,1.545
		c-1.038,0-1.845-0.355-2.433-1.079c-0.575-0.726-0.78-1.6-0.615-2.639c0.149-1.025,0.615-1.846,1.38-2.475
		c0.767-0.628,1.613-0.942,2.544-0.942c1.299,0,2.405,0.696,2.843,1.859L125.546,69.108z M123.688,74.712
		c0.614-0.479,1.01-1.106,1.201-1.886l0.083-0.438c0.082-0.82-0.138-1.49-0.643-1.995c-0.506-0.521-1.136-0.78-1.887-0.78
		c-0.779,0-1.489,0.26-2.133,0.78c-0.642,0.519-1.024,1.201-1.147,2.036c-0.123,0.847,0.041,1.559,0.506,2.146
		c0.479,0.573,1.135,0.861,1.968,0.861C122.402,75.438,123.084,75.191,123.688,74.712z"/>
	<path fill="#2F3341" d="M128.965,70.27c0.614-0.888,1.462-1.299,2.516-1.257l-0.123,0.655c-0.643,0-1.23,0.205-1.737,0.63
		c-0.505,0.41-0.833,1.024-0.983,1.845l-0.671,3.8h-0.683l1.203-6.834h0.684L128.965,70.27z"/>
	<path fill="#2F3341" d="M138.737,69.108h0.685l-1.203,6.834h-0.684l0.246-1.395c-0.766,1.025-1.819,1.545-3.158,1.545
		c-0.971,0-1.75-0.369-2.337-1.106c-0.588-0.738-0.807-1.613-0.629-2.611c0.191-1.066,0.655-1.9,1.408-2.502
		c0.751-0.614,1.6-0.915,2.542-0.915c1.299,0,2.393,0.71,2.83,1.872L138.737,69.108z M137.59,70.462
		c-0.492-0.562-1.134-0.849-1.941-0.849c-0.778,0-1.49,0.26-2.118,0.766c-0.63,0.506-1.025,1.189-1.176,2.051
		c-0.151,0.819,0.013,1.531,0.491,2.118c0.479,0.589,1.121,0.89,1.942,0.89c0.819,0,1.544-0.26,2.173-0.794
		c0.629-0.532,1.012-1.201,1.148-2.022C138.26,71.732,138.096,71.021,137.59,70.462z"/>
	<path fill="#2F3341" d="M148.185,66.374h0.685l-1.681,9.568h-0.685l0.245-1.395c-0.765,1.025-1.817,1.545-3.157,1.545
		c-0.97,0-1.75-0.369-2.337-1.106c-0.589-0.738-0.807-1.613-0.63-2.611c0.192-1.066,0.657-1.9,1.409-2.502
		c0.752-0.614,1.599-0.915,2.542-0.915c1.299,0,2.393,0.696,2.83,1.859L148.185,66.374z M146.559,70.462
		c-0.492-0.562-1.135-0.849-1.941-0.849c-0.779,0-1.49,0.26-2.118,0.766c-0.629,0.506-1.025,1.189-1.177,2.051
		c-0.149,0.819,0.015,1.531,0.493,2.118c0.478,0.589,1.12,0.89,1.94,0.89s1.544-0.26,2.16-0.794
		c0.629-0.532,1.012-1.201,1.162-2.022C147.229,71.732,147.064,71.021,146.559,70.462z"/>
	<path fill="#2F3341" d="M156.674,69.108h0.684l-1.202,6.834h-0.684l0.246-1.395c-0.767,1.025-1.818,1.545-3.158,1.545
		c-0.971,0-1.75-0.369-2.337-1.106c-0.589-0.738-0.807-1.613-0.63-2.611c0.191-1.066,0.657-1.9,1.409-2.502
		c0.751-0.614,1.6-0.915,2.542-0.915c1.298,0,2.393,0.71,2.829,1.872L156.674,69.108z M155.526,70.462
		c-0.492-0.562-1.135-0.849-1.941-0.849c-0.779,0-1.49,0.26-2.119,0.766c-0.628,0.506-1.024,1.189-1.176,2.051
		c-0.15,0.819,0.015,1.531,0.493,2.118c0.479,0.589,1.121,0.89,1.94,0.89c0.82,0,1.545-0.26,2.173-0.794
		c0.63-0.532,1.012-1.201,1.149-2.022C156.196,71.732,156.031,71.021,155.526,70.462z"/>
	<path fill="#2F3341" d="M170.372,66.374l-5.673,4.716l4.101,4.853h-0.874l-4.047-4.771l-0.833,4.771h-0.725l1.681-9.568h0.726
		l-0.78,4.456l5.44-4.456H170.372z"/>
	<path fill="#2F3341" d="M171.81,70.27c0.615-0.888,1.462-1.299,2.515-1.257l-0.123,0.655c-0.643,0-1.23,0.205-1.735,0.63
		c-0.507,0.41-0.835,1.024-0.985,1.845l-0.669,3.8h-0.685l1.204-6.834h0.683L171.81,70.27z"/>
	<path fill="#2F3341" d="M180.735,69.108h0.684l-1.203,6.834h-0.684l0.205-1.189c-0.643,0.89-1.518,1.34-2.624,1.34
		c-1.627,0-2.502-1.079-2.229-2.733l0.752-4.251h0.697l-0.752,4.251c-0.219,1.271,0.354,2.078,1.654,2.078
		c1.408,0,2.542-0.958,2.856-2.721v0.013L180.735,69.108z"/>
	<path fill="#2F3341" d="M183.921,70.83c-0.123,0.656,0.465,1.067,1.23,1.299c1.12,0.314,2.556,0.697,2.296,2.2
		c-0.177,1.094-1.217,1.764-2.651,1.764c-1.299,0-2.105-0.52-2.434-1.559l0.615-0.314c0.205,0.753,0.875,1.218,1.874,1.218
		c0.996,0,1.762-0.451,1.913-1.218c0.123-0.669-0.465-1.093-1.244-1.326c-1.108-0.314-2.584-0.696-2.298-2.159
		c0.098-0.52,0.37-0.942,0.821-1.271c0.464-0.341,1.026-0.505,1.668-0.505c1.08,0,1.899,0.505,2.24,1.366l-0.601,0.314
		c-0.219-0.67-0.901-1.025-1.667-1.025C184.852,69.613,184.071,70.023,183.921,70.83z M185.603,68.15l-1.176-1.735h0.738
		l0.875,1.285l1.312-1.285h0.835l-1.778,1.735H185.603z"/>
	<path fill="#2F3341" d="M195.309,70.023c0.532,0.711,0.698,1.559,0.505,2.529c-0.027,0.15-0.055,0.26-0.082,0.328h-6.163
		c-0.11,1.544,0.846,2.557,2.419,2.557c1.135,0,1.995-0.424,2.597-1.259l0.533,0.355c-0.655,0.984-1.914,1.559-3.226,1.559
		c-1.04,0-1.832-0.341-2.394-1.038c-0.56-0.697-0.738-1.572-0.56-2.625c0.178-1.012,0.656-1.846,1.408-2.488
		c0.751-0.656,1.641-0.983,2.651-0.983C194.023,68.958,194.789,69.313,195.309,70.023z M195.158,72.212
		c0.164-1.642-0.737-2.599-2.215-2.599c-0.779,0-1.476,0.232-2.064,0.711c-0.587,0.479-0.997,1.107-1.201,1.888H195.158z"/>
	<path fill="#2F3341" d="M202.321,69.108h0.779l-3.868,6.834h-0.835l-1.462-6.834h0.711l1.258,6.096L202.321,69.108z"/>
	<path fill="#2F3341" d="M203.73,75.014c-0.561-0.726-0.752-1.586-0.574-2.598s0.656-1.846,1.436-2.488
		c0.793-0.643,1.694-0.97,2.72-0.97c1.313,0,2.379,0.683,2.748,1.735l-0.588,0.314c-0.314-0.875-1.094-1.395-2.228-1.395
		c-0.835,0-1.572,0.273-2.215,0.82s-1.024,1.229-1.176,2.051c-0.151,0.833,0,1.53,0.451,2.104c0.451,0.561,1.08,0.849,1.914,0.849
		c1.093,0,2.117-0.562,2.679-1.436l0.547,0.369c-0.697,1.08-1.928,1.722-3.349,1.722C205.097,76.093,204.305,75.737,203.73,75.014z"
		/>
	<path fill="#2F3341" d="M217.988,69.108h0.684l-1.202,6.834h-0.684l0.245-1.395c-0.766,1.025-1.817,1.545-3.157,1.545
		c-0.972,0-1.75-0.369-2.338-1.106c-0.588-0.738-0.806-1.613-0.629-2.611c0.191-1.066,0.656-1.9,1.409-2.502
		c0.751-0.614,1.599-0.915,2.542-0.915c1.298,0,2.393,0.71,2.829,1.872L217.988,69.108z M216.841,70.462
		c-0.492-0.562-1.135-0.849-1.941-0.849c-0.779,0-1.49,0.26-2.119,0.766s-1.024,1.189-1.177,2.051
		c-0.15,0.819,0.016,1.531,0.493,2.118c0.479,0.589,1.121,0.89,1.941,0.89s1.544-0.26,2.173-0.794
		c0.63-0.532,1.012-1.201,1.149-2.022C217.51,71.732,217.346,71.021,216.841,70.462z"/>
</g>
</svg>
